<svg width="29" height="22" viewBox="0 0 29 22" fill="none" xmlns="http://www.w3.org/2000/svg">
<path d="M24.5658 1.84247C22.6612 0.97032 20.6494 0.349315 18.5829 0C18.3 0.506849 18.0446 1.0274 17.8165 1.55936C15.6154 1.22831 13.3778 1.22831 11.1766 1.55936C10.9485 1.0274 10.6931 0.506849 10.4102 0C8.34369 0.353881 6.32961 0.974886 4.42274 1.84703C0.636363 7.45434 -0.390064 12.9224 0.123149 18.3128C2.34023 19.9521 4.82191 21.2009 7.46097 22C8.05401 21.2009 8.58091 20.3516 9.03254 19.4635C8.1749 19.1438 7.34692 18.7466 6.55771 18.2808C6.76528 18.1301 6.96828 17.9749 7.16444 17.8242C11.8107 20.0114 17.1892 20.0114 21.8355 17.8242C22.034 17.9863 22.237 18.1416 22.4422 18.2808C21.653 18.7489 20.8228 19.1438 19.9629 19.4658C20.4145 20.3539 20.9391 21.2009 21.5344 22C24.1758 21.2032 26.6597 19.9566 28.8768 18.3151C29.479 12.0639 27.8481 6.64612 24.5658 1.84247ZM9.68261 14.9977C8.25246 14.9977 7.07092 13.6986 7.07092 12.1005C7.07092 10.5023 8.2114 9.19178 9.67805 9.19178C11.1447 9.19178 12.3171 10.5023 12.292 12.1005C12.2669 13.6986 11.1401 14.9977 9.68261 14.9977ZM19.3173 14.9977C17.8849 14.9977 16.7079 13.6986 16.7079 12.1005C16.7079 10.5023 17.8484 9.19178 19.3173 9.19178C20.7863 9.19178 21.9496 10.5023 21.9245 12.1005C21.8994 13.6986 20.7749 14.9977 19.3173 14.9977Z" fill="#653DF5"/>
</svg>
