<svg width="26" height="25" viewBox="0 0 26 25" fill="none" xmlns="http://www.w3.org/2000/svg">
<path fill-rule="evenodd" clip-rule="evenodd" d="M1 4.37739V4.00006C1 1.79073 2.79067 6.10352e-05 5 6.10352e-05H21C23.2093 6.10352e-05 25 1.79073 25 4.00006V16.0001C25 18.2094 23.2093 20.0001 21 20.0001H19.6667" fill="#2C1B6A"/>
<path d="M25.0001 7.99988H19.6667" stroke="white" stroke-width="1.5" stroke-linecap="round" stroke-linejoin="round"/>
<path fill-rule="evenodd" clip-rule="evenodd" d="M14.7667 23.896C17.2733 24.4747 19.6667 22.5707 19.6667 19.9987V8.516C19.6667 6.6534 18.3813 5.03737 16.5667 4.61871L4.26667 1.78004C2.59467 1.39337 1 2.66271 1 4.37737V17.536C1 19.3987 2.28533 21.0147 4.1 21.4334L14.7667 23.896Z" fill="#653DF5" stroke="#653DF5" stroke-width="1.5" stroke-linecap="round" stroke-linejoin="round"/>
<path d="M14.9986 13.9731C14.8146 13.9745 14.6666 14.1238 14.6666 14.3078C14.6666 14.4918 14.8159 14.6411 14.9999 14.6398C15.1839 14.6398 15.3333 14.4905 15.3333 14.3065C15.3333 14.1225 15.1839 13.9731 14.9986 13.9731Z" stroke="white" stroke-width="1.5" stroke-linecap="round" stroke-linejoin="round"/>
</svg>
