<svg width="109" height="23" viewBox="0 0 109 23" fill="none" xmlns="http://www.w3.org/2000/svg">
<g clip-path="url(#clip0_2609_247)">
<path d="M109 10.4045V8.50969H106.62V5.56449L106.539 5.58873L104.303 6.26477L104.26 6.27823V8.50969H100.731V7.2667C100.731 6.68763 100.862 6.24457 101.121 5.94964C101.377 5.65741 101.743 5.50928 102.211 5.50928C102.547 5.50928 102.895 5.58739 103.245 5.74225L103.332 5.78131V3.78552L103.291 3.77071C102.964 3.6549 102.52 3.59564 101.969 3.59564C101.275 3.59564 100.644 3.74512 100.095 4.04139C99.5442 4.33766 99.111 4.76052 98.8071 5.2992C98.5047 5.83652 98.3521 6.45734 98.3521 7.14415V8.51104H96.6939V10.4058H98.3521V18.3876H100.731V10.4058H104.26V15.4788C104.26 17.5675 105.257 18.626 107.223 18.626C107.546 18.626 107.887 18.5883 108.234 18.5155C108.587 18.4401 108.828 18.3647 108.97 18.2853L109.001 18.2664V16.3541L108.905 16.4174C108.775 16.5023 108.614 16.5723 108.426 16.6235C108.237 16.676 108.079 16.7029 107.956 16.7029C107.496 16.7029 107.155 16.5804 106.944 16.338C106.73 16.0942 106.621 15.666 106.621 15.0694V10.4058H109.001L109 10.4045ZM91.3801 16.7016C90.5163 16.7016 89.8351 16.4188 89.3555 15.8612C88.8731 15.301 88.6279 14.5024 88.6279 13.487C88.6279 12.4716 88.8731 11.6205 89.3555 11.0495C89.8351 10.4826 90.5095 10.1957 91.3597 10.1957C92.2099 10.1957 92.8421 10.4705 93.3122 11.0118C93.785 11.5572 94.0248 12.3693 94.0248 13.4291C94.0248 14.489 93.7986 15.3253 93.3544 15.876C92.913 16.4228 92.2481 16.7002 91.3788 16.7002M91.4851 8.26998C89.8378 8.26998 88.5284 8.74671 87.5951 9.68804C86.6632 10.6294 86.1904 11.9316 86.1904 13.5598C86.1904 15.1879 86.6523 16.3501 87.5624 17.2564C88.4726 18.1627 89.7111 18.6219 91.2439 18.6219C92.7767 18.6219 94.1242 18.1385 95.0562 17.1837C95.9881 16.2302 96.4609 14.9401 96.4609 13.3497C96.4609 11.7592 96.0181 10.5257 95.142 9.62609C94.2673 8.72516 93.0356 8.26863 91.4837 8.26863M82.3522 8.26863C81.2309 8.26863 80.3044 8.55144 79.5959 9.11031C78.8833 9.67188 78.5222 10.4099 78.5222 11.3014C78.5222 11.7646 78.5999 12.1767 78.7539 12.5268C78.9078 12.877 79.1476 13.1854 79.4651 13.4453C79.7798 13.7025 80.2662 13.9718 80.9121 14.2452C81.4543 14.4661 81.8576 14.6519 82.1151 14.7987C82.3658 14.9428 82.5443 15.0869 82.6452 15.2283C82.7433 15.3657 82.7923 15.5555 82.7923 15.7885C82.7923 16.4524 82.2895 16.7743 81.2554 16.7743C80.8712 16.7743 80.4338 16.6948 79.9542 16.5386C79.4787 16.3851 79.0291 16.1602 78.6217 15.8707L78.5222 15.8006V18.0644L78.559 18.0806C78.8956 18.2341 79.3207 18.3634 79.8207 18.4657C80.3207 18.5681 80.7744 18.6192 81.1682 18.6192C82.3849 18.6192 83.3646 18.3351 84.0785 17.7722C84.7979 17.2066 85.1617 16.4511 85.1617 15.5286C85.1617 14.8633 84.9655 14.2923 84.5785 13.8318C84.1943 13.3753 83.5281 12.9564 82.5975 12.5848C81.8563 12.2912 81.3821 12.0474 81.1859 11.8602C80.9965 11.6798 80.9012 11.4239 80.9012 11.0994C80.9012 10.8125 81.0197 10.5822 81.2622 10.395C81.5075 10.2079 81.8481 10.1122 82.2746 10.1122C82.671 10.1122 83.0771 10.1742 83.4804 10.2954C83.8837 10.4166 84.2379 10.5795 84.5336 10.7775L84.6303 10.8435V8.69553L84.5935 8.67937C84.321 8.56356 83.9613 8.46525 83.524 8.38445C83.0893 8.30499 82.6942 8.26459 82.3522 8.26459M72.3188 16.6948C71.455 16.6948 70.7737 16.412 70.2941 15.8545C69.8118 15.2943 69.5665 14.4957 69.5665 13.4803C69.5665 12.4649 69.8104 11.6138 70.2941 11.0428C70.7737 10.4758 71.4481 10.189 72.2983 10.189C73.1485 10.189 73.7794 10.4637 74.2508 11.0051C74.7236 11.5505 74.9634 12.3625 74.9634 13.4224C74.9634 14.4822 74.7372 15.3185 74.293 15.8693C73.8516 16.4161 73.1867 16.6935 72.3174 16.6935M72.4237 8.26325C70.7751 8.26325 69.4671 8.73997 68.5337 9.6813C67.6018 10.6226 67.1276 11.9249 67.1276 13.553C67.1276 15.1812 67.5895 16.3433 68.4997 17.2497C69.4098 18.156 70.6484 18.6152 72.1812 18.6152C73.714 18.6152 75.0615 18.1317 75.9934 17.1769C76.9254 16.2235 77.3982 14.9334 77.3982 13.3429C77.3982 11.7525 76.9554 10.5189 76.0793 9.61936C75.2032 8.71842 73.9729 8.2619 72.421 8.2619M63.5143 10.2105V8.50026H61.164V18.3768H63.5143V13.3241C63.5143 12.4649 63.7119 11.7592 64.1002 11.2259C64.4844 10.6994 64.9953 10.4328 65.6207 10.4328C65.8319 10.4328 66.0703 10.4678 66.3279 10.5351C66.5826 10.6024 66.7666 10.6765 66.8756 10.7546L66.975 10.826V8.4841L66.9369 8.46794C66.7175 8.37637 66.4082 8.32923 66.0158 8.32923C65.4245 8.32923 64.8972 8.51642 64.4435 8.88676C64.0457 9.21131 63.7595 9.65706 63.5388 10.2119H63.5143V10.2105ZM56.9539 8.2619C55.8761 8.2619 54.9142 8.49084 54.0953 8.94063C53.2751 9.39177 52.6415 10.0368 52.2096 10.857C51.7804 11.6744 51.5624 12.6305 51.5624 13.6958C51.5624 14.629 51.7736 15.4855 52.1919 16.2397C52.6102 16.9951 53.2015 17.5877 53.9509 17.9971C54.6989 18.4065 55.5641 18.6139 56.5206 18.6139C57.6378 18.6139 58.5916 18.393 59.3559 17.958L59.3873 17.9405V15.8114L59.2878 15.8828C58.9417 16.1319 58.5548 16.3312 58.1379 16.474C57.7223 16.6167 57.3435 16.6894 57.0111 16.6894C56.0887 16.6894 55.3488 16.4039 54.8106 15.8424C54.2725 15.2795 53.9986 14.489 53.9986 13.4938C53.9986 12.4986 54.2834 11.6811 54.8447 11.0832C55.4047 10.4866 56.1459 10.1836 57.0492 10.1836C57.8218 10.1836 58.5752 10.4422 59.2865 10.9526L59.3846 11.0239V8.78172L59.3532 8.76421C59.0848 8.61608 58.7197 8.49353 58.2659 8.40061C57.8136 8.30769 57.3721 8.2619 56.9525 8.2619M49.9424 8.50026H47.5921V18.3768H49.9424V8.50026ZM48.7911 4.29322C48.4042 4.29322 48.0663 4.42385 47.7897 4.68107C47.5117 4.93963 47.37 5.26553 47.37 5.64933C47.37 6.03314 47.509 6.34692 47.7856 6.59875C48.0595 6.84923 48.3974 6.97716 48.7911 6.97716C49.1849 6.97716 49.5241 6.85058 49.8021 6.59875C50.0814 6.34692 50.2231 6.0264 50.2231 5.64799C50.2231 5.26957 50.0855 4.95445 49.8144 4.68915C49.5432 4.4252 49.1999 4.29053 48.7925 4.29053M42.9283 7.76901V18.3741H45.3276V4.60565H42.0072L37.7876 14.8418L33.6919 4.60565H30.2366V18.3863H32.4902V7.78113H32.5678L36.8924 18.3876H38.5942L42.8506 7.78248H42.9283V7.76901Z" fill="#393B42"/>
<path d="M11.058 10.9297H0V0H11.058V10.9297Z" fill="#393B42"/>
<path d="M23.266 10.9297H12.2094V0H23.266V10.9297Z" fill="#393B42"/>
<path d="M11.0567 23H0V12.0717H11.0567V23Z" fill="#393B42"/>
<path d="M23.266 23H12.2094V12.0717H23.266V23Z" fill="#393B42"/>
</g>
<defs>
<clipPath id="clip0_2609_247">
<rect width="109" height="23" fill="white"/>
</clipPath>
</defs>
</svg>
