<svg width="26" height="28" viewBox="0 0 26 28" fill="none" xmlns="http://www.w3.org/2000/svg">
<path d="M25 27.0001L22.5414 24.5414" stroke="white" stroke-width="1.5" stroke-linecap="round" stroke-linejoin="round"/>
<path d="M18.5865 14.9998C21.672 14.9998 24.1732 17.5011 24.1732 20.5865C24.1274 23.6527 21.6528 26.1274 18.5865 26.1731C15.5011 26.1731 12.9999 23.6719 12.9999 20.5865C12.9999 17.5011 15.5011 14.9998 18.5865 14.9998Z" stroke="#653DF5" stroke-width="1.5" stroke-linecap="round" stroke-linejoin="round"/>
<path d="M1 20.3333V22.9999C1 24.4727 2.19391 25.6666 3.66667 25.6666H9" stroke="white" stroke-width="1.5" stroke-linecap="round" stroke-linejoin="round"/>
<path d="M24.9999 12.3333V5.66661C24.9999 4.19385 23.806 2.99994 22.3333 2.99994H14.3333" stroke="white" stroke-width="1.5" stroke-linecap="round" stroke-linejoin="round"/>
<path d="M20.4868 19.6093L18.1121 21.9826L16.6854 20.5599" stroke="white" stroke-width="1.5" stroke-linecap="round" stroke-linejoin="round"/>
<path fill-rule="evenodd" clip-rule="evenodd" d="M10.3333 14.3335H1.66667C1.29848 14.3335 1 14.035 1 13.6668V13.1255C1.00439 11.5853 2.25184 10.3379 3.792 10.3335H8.208C9.7482 10.3379 10.9956 11.5853 11 13.1255V13.6668C11 14.035 10.7015 14.3335 10.3333 14.3335Z" fill="#653DF5" stroke="#653DF5" stroke-width="1.5" stroke-linecap="round" stroke-linejoin="round"/>
<path fill-rule="evenodd" clip-rule="evenodd" d="M5.9999 6.99985C4.52853 6.99985 3.33521 5.80809 3.33325 4.33672C3.3313 2.86535 4.52145 1.67044 5.99282 1.66651C7.4642 1.6626 8.6607 2.85116 8.6666 4.32251C8.6694 5.0316 8.3897 5.71262 7.8893 6.21503C7.3889 6.71744 6.709 6.99985 5.9999 6.99985Z" fill="#653DF5" stroke="#653DF5" stroke-width="1.5" stroke-linecap="round" stroke-linejoin="round"/>
</svg>
