<svg width="67" height="23" viewBox="0 0 67 23" fill="none" xmlns="http://www.w3.org/2000/svg">
<g clip-path="url(#clip0_2609_269)">
<path d="M11.2706 0.596893C11.4236 0.667826 11.5205 0.81476 11.643 0.931293C11.8419 1.10356 11.9899 1.33156 12.1838 1.50889C12.4235 1.73689 12.5766 2.02569 12.7755 2.28409C13.1224 2.80596 13.4285 3.36329 13.5867 3.97129C13.7499 4.38675 13.7754 4.83768 13.7652 5.28355C13.7754 5.68888 13.6632 6.08915 13.4795 6.45395C13.1632 7.00621 12.5919 7.37608 11.995 7.57368C11.2501 7.75101 10.4288 7.78141 9.70951 7.46728C9.44929 7.32541 9.15345 7.22914 8.94429 7.00621C8.45966 6.61101 8.17908 5.96755 8.2709 5.34435C8.41374 4.23475 9.08203 3.28222 9.79623 2.46142C9.86255 2.58302 9.80639 2.72489 9.85235 2.85155C9.91357 3.12009 10.0105 3.40382 10.2146 3.59635C10.4645 3.36835 10.7298 3.14035 10.9441 2.87689C11.138 2.59316 11.2961 2.27902 11.3624 1.94462C11.3777 1.51902 11.4185 1.07316 11.2552 0.667826L11.2706 0.596893ZM1.92472 5.65848C3.11845 5.66861 4.31729 5.64835 5.51108 5.66862C5.51108 6.84915 5.52123 8.02968 5.50592 9.21021C6.35281 9.22541 7.1996 9.21527 8.05154 9.21527C8.06175 9.30647 8.06685 9.39767 8.06685 9.48887C8.05664 10.4617 8.07195 11.4294 8.05664 12.4022C7.2047 12.4123 6.35787 12.4022 5.50592 12.4073C5.52123 14.1553 5.50082 15.8982 5.51613 17.6462C5.54674 17.7982 5.56714 17.9502 5.56204 18.1073C5.54669 18.2492 5.63341 18.3657 5.66407 18.4974C5.73039 18.8014 5.89874 19.075 6.09254 19.3132C6.37827 19.5969 6.74552 19.7945 7.13833 19.8806C7.49543 19.9364 7.85254 19.9667 8.21479 19.9414C8.23514 20.0022 8.2454 20.063 8.2454 20.1288C8.2403 21.0408 8.2403 21.9528 8.2454 22.8598C8.2454 22.9864 8.21989 23.1131 8.19948 23.2347C7.68424 23.2347 7.16904 23.2701 6.65375 23.2347C6.34766 23.1688 6.02122 23.1992 5.72529 23.0675C4.90396 22.8749 4.11833 22.4696 3.53167 21.8565C2.66953 21.0307 2.20529 19.8654 2.01654 18.7102C1.96553 18.5835 1.99614 18.4366 1.97568 18.2998C1.90431 18.0211 1.93487 17.7272 1.92466 17.4435C1.91961 13.5169 1.91961 9.58514 1.92472 5.65848ZM19.3512 8.94168C19.5654 8.88594 19.795 8.92647 20.0093 8.88087C20.4582 8.82514 20.902 8.89607 21.3458 8.91127C21.657 8.90621 21.958 8.99741 22.2641 9.05821C23.4017 9.33181 24.4781 9.93474 25.2586 10.8163C25.3964 11.0443 25.6055 11.2115 25.7381 11.4446C26.0697 11.9665 26.2891 12.5491 26.4778 13.1369C26.5952 13.5675 26.6564 14.0134 26.7126 14.4542C26.7381 15.4321 26.7228 16.415 26.7279 17.3929C26.7228 19.3435 26.733 21.2942 26.7228 23.2448C25.529 23.2296 24.3404 23.2398 23.1517 23.2347C23.1415 23.2296 23.116 23.2094 23.1058 23.1992C23.1007 20.4684 23.1058 17.7374 23.1058 15.0115C23.1109 14.6771 23.0497 14.3529 22.9783 14.0337C22.8508 13.7094 22.6875 13.4003 22.4631 13.1369C22.3304 12.9798 22.1468 12.8785 21.9988 12.7417C21.7692 12.5897 21.4988 12.5187 21.2387 12.4478C21.101 12.4377 20.9632 12.4478 20.8357 12.4022C20.2898 12.3667 19.7338 12.4123 19.2236 12.6201C18.8512 12.7974 18.5043 13.0406 18.2595 13.3801C17.8565 13.8563 17.7238 14.5049 17.734 15.1129C17.734 17.8185 17.7391 20.5291 17.734 23.2347C16.53 23.2448 15.3261 23.2296 14.1222 23.2448C14.1018 20.6355 14.1222 18.0211 14.112 15.4118C14.1171 15.0773 14.1069 14.743 14.1324 14.4085C14.1987 14.2413 14.1528 14.059 14.2038 13.8968C14.2956 13.2787 14.5303 12.6909 14.7904 12.1285C15.0455 11.6371 15.3516 11.1659 15.7495 10.7758C16.0608 10.4616 16.3821 10.1323 16.775 9.91442C17.5351 9.38754 18.433 9.06834 19.3512 8.94168ZM62.1013 8.91127C62.5451 8.90114 62.9838 8.81501 63.4277 8.88594C63.6674 8.91634 63.9123 8.91127 64.152 8.92141C64.1979 9.36221 64.1622 9.80807 64.1724 10.2489V12.0222C64.1724 12.1337 64.1877 12.2502 64.1418 12.3566C64.0244 12.2705 63.8663 12.3009 63.7337 12.2654C63.1929 12.2199 62.6369 12.2452 62.1267 12.4479C61.5197 12.6556 60.9891 13.0964 60.6932 13.6689C60.6065 13.7753 60.6065 13.9273 60.5095 14.0286C60.3513 14.5961 60.3412 15.1889 60.3513 15.7716C60.3462 18.2644 60.3667 20.7521 60.3412 23.2449C59.1525 23.2297 57.9588 23.2449 56.765 23.2348C56.7548 23.2246 56.7395 23.2044 56.7293 23.1942V15.0622C56.714 14.7228 56.7905 14.3934 56.7855 14.059C56.8671 13.8969 56.8467 13.7094 56.8977 13.5422C57.1528 12.2604 57.8313 11.0495 58.8618 10.2236C59.0607 10.0007 59.3464 9.89426 59.5811 9.71692C60.3413 9.25581 61.2238 9.03287 62.1013 8.91127ZM9.22487 9.21021C10.4288 9.23047 11.6328 9.20514 12.8367 9.22034C12.8367 13.8563 12.8316 18.4872 12.8367 23.1182C12.8367 23.1638 12.8367 23.255 12.7653 23.2398H9.23513C9.20447 22.4747 9.22997 21.7046 9.21977 20.9395C9.22487 17.0331 9.21977 13.1217 9.22487 9.21021ZM47.001 18.6139C47.3071 18.4974 47.603 18.3454 47.9141 18.239C48.3631 18.0668 48.8018 17.859 49.2507 17.6868C50.1792 17.2612 51.1382 16.9066 52.0769 16.5062C52.3013 16.3846 52.5564 16.3289 52.7757 16.1972C53.0257 16.1009 53.2757 16.0147 53.5206 15.9033C53.7349 15.7766 53.9797 15.7259 54.1991 15.6145C54.4899 15.4979 54.7705 15.3662 55.0663 15.2598C55.3673 15.0926 55.704 15.0116 56.005 14.8494C56.0866 14.7937 56.2192 14.8089 56.2702 14.7126C56.1836 14.591 56.2294 14.439 56.1836 14.3073C56.1172 14.0692 56.0509 13.8361 55.9948 13.603C55.7652 12.8988 55.4336 12.2249 54.9847 11.6372C54.4389 10.8519 53.689 10.2185 52.8574 9.75239C52.3116 9.42306 51.6994 9.23559 51.0872 9.07346C50.7097 9.02786 50.3475 8.89613 49.9649 8.90119C49.618 8.85559 49.2609 8.83533 48.9191 8.89612C48.312 8.90626 47.7305 9.05319 47.154 9.22039C46.149 9.56999 45.1951 10.102 44.4247 10.8367C44.1952 11.0495 44.0064 11.2977 43.7871 11.5156C43.4453 11.9513 43.134 12.4124 42.8994 12.9089C42.5678 13.6537 42.2515 14.434 42.2158 15.2598C42.1036 15.655 42.1393 16.0705 42.1342 16.4758C42.124 16.7342 42.1648 16.9876 42.2158 17.2358C42.2005 17.4993 42.3025 17.7425 42.3383 17.9958C42.425 18.5329 42.6647 19.0294 42.8841 19.5259C43.4861 20.752 44.4349 21.816 45.6236 22.5102C46.4041 22.9864 47.2713 23.3259 48.1794 23.4526C48.9191 23.5692 49.6792 23.5894 50.424 23.4932C50.6791 23.5134 50.924 23.4019 51.179 23.3867C52.2657 23.1334 53.3319 22.6774 54.1532 21.9123C54.3981 21.7198 54.6277 21.4918 54.8215 21.2485C55.148 20.9192 55.3827 20.519 55.6174 20.1238C55.8418 19.7032 56.0255 19.2573 56.1582 18.7963C56.0867 18.7659 56.0051 18.7761 55.9337 18.7761C54.74 18.7812 53.5513 18.771 52.3576 18.7761C52.2453 18.7761 52.2454 18.9281 52.1739 18.9889C51.9698 19.2827 51.7096 19.531 51.4342 19.764C51.0363 20.0478 50.5669 20.1998 50.1027 20.3366C49.9803 20.3518 49.8629 20.3467 49.7507 20.3924C49.465 20.4126 49.1742 20.4025 48.8835 20.3974C48.5621 20.3366 48.2407 20.2657 47.9295 20.1644C47.45 19.9212 46.9806 19.6425 46.6185 19.2473C46.5266 19.1358 46.3787 19.0497 46.348 18.9027C46.4297 18.8673 46.5062 18.8115 46.598 18.7963C46.7459 18.771 46.8581 18.6545 47.001 18.6139ZM45.5318 16.0502C45.4604 15.8729 45.5267 15.6651 45.5164 15.4777C45.5981 15.2192 45.6236 14.9457 45.7205 14.6872C45.9654 14.1147 46.2664 13.5523 46.7051 13.1013C46.9091 12.9341 47.0826 12.7315 47.3173 12.6048C47.4907 12.5136 47.6591 12.4123 47.8376 12.3312C48.1692 12.235 48.4906 12.083 48.8375 12.083C49.1538 12.007 49.4803 12.0475 49.8017 12.0526C50.6434 12.1691 51.4903 12.5288 52.0361 13.1925C52.0923 13.3243 51.9035 13.3345 51.8269 13.3851C51.4953 13.5675 51.1229 13.6587 50.7913 13.8462C50.6434 13.8715 50.5159 13.9627 50.373 14.0083C49.317 14.4643 48.2406 14.8645 47.1948 15.3409C46.6337 15.5587 46.0777 15.7918 45.5318 16.0502ZM41.7312 3.01875C40.614 3.00862 39.4968 3.01875 38.3796 3.01369C38.2979 3.02382 38.201 2.98835 38.1347 3.04915C38.1449 5.43048 38.1347 7.81688 38.1398 10.1982C38.1347 10.2843 38.1551 10.3705 38.1194 10.4515C38.0174 10.4363 37.9664 10.3401 37.8899 10.2843C37.3746 9.84354 36.7982 9.46861 36.1554 9.25074C35.7217 9.08354 35.2678 8.99741 34.8086 8.91634C34.2883 8.90621 33.7628 8.89101 33.2373 8.92141C33.1812 8.93661 33.1302 8.95181 33.0741 8.95687C31.9059 9.11901 30.8142 9.66114 29.9164 10.4059C29.4164 10.8721 28.9165 11.3585 28.5645 11.9462C28.1513 12.5289 27.886 13.1977 27.6309 13.8563C27.5136 14.2718 27.3962 14.6822 27.3452 15.1078C27.2483 15.7614 27.2891 16.4302 27.2993 17.0889C27.3248 17.2611 27.3809 17.4233 27.386 17.5955C27.4778 18.1529 27.6411 18.7001 27.8655 19.2219C28.0542 19.7235 28.3603 20.1795 28.6409 20.6355C28.8398 20.8888 29.0337 21.1523 29.2735 21.3752C29.6306 21.7248 29.9825 22.1048 30.4314 22.348C30.962 22.7483 31.5895 22.9865 32.2016 23.2195C32.4261 23.26 32.6353 23.3867 32.8648 23.3918C33.0587 23.407 33.2372 23.4982 33.4311 23.488C33.5332 23.4779 33.625 23.5488 33.7321 23.5387C34.2269 23.5539 34.7269 23.5539 35.2217 23.5387C35.3033 23.5387 35.3849 23.5032 35.4717 23.4981C35.8134 23.5032 36.1297 23.3715 36.4613 23.3259C36.8949 23.1688 37.3592 23.0675 37.7622 22.8344C38.359 22.5608 38.8998 22.1758 39.3844 21.74C39.9966 21.2131 40.4914 20.5544 40.8587 19.8349C41.0169 19.5157 41.1954 19.2067 41.2975 18.8621C41.4914 18.3859 41.578 17.8792 41.6444 17.3776C41.7566 16.9368 41.7209 16.4757 41.7311 16.0197C41.7312 11.6878 41.7312 7.35581 41.7312 3.01875ZM38.1041 16.7393C38.0735 17.2764 37.8694 17.7881 37.6297 18.2694C37.2267 19.0243 36.5482 19.6019 35.7779 19.9667C35.6605 20.0275 35.5074 20.0225 35.4259 20.1339C35.283 20.1339 35.1402 20.139 35.0024 20.1897C34.5637 20.1998 34.1097 20.2404 33.6812 20.1188C33.4975 20.0326 33.2935 19.9972 33.1098 19.9009C32.8802 19.7742 32.6201 19.6881 32.4313 19.4956C32.0742 19.2473 31.7988 18.9078 31.5488 18.5582C31.3498 18.2188 31.1509 17.8692 31.059 17.4841C30.957 17.2814 30.9671 17.0534 30.9111 16.8406C30.8958 16.2986 30.8652 15.7412 30.9927 15.2142C31.0489 15.047 31.0846 14.8697 31.1458 14.7025C31.2937 14.4339 31.3855 14.135 31.5794 13.8918C31.6814 13.679 31.86 13.5219 32.0028 13.3396C32.3855 12.9038 32.9109 12.6252 33.4414 12.4073C33.6404 12.3618 33.8342 12.2604 34.0434 12.2604C34.4668 12.154 34.9055 12.2402 35.3239 12.3162C35.8748 12.5138 36.4207 12.7874 36.8492 13.1927C37.0074 13.3396 37.1246 13.522 37.2828 13.669C37.9358 14.5403 38.2367 15.6601 38.1041 16.7393ZM62.0707 21.4614H63.4072C63.4123 21.5627 63.4123 21.664 63.4072 21.7654C63.2542 21.7856 63.1012 21.7603 62.9532 21.7806C62.9329 22.2366 62.9532 22.6875 62.9431 23.1435C62.8053 23.1334 62.6676 23.1334 62.535 23.1384C62.5196 22.7787 62.5248 22.4139 62.5298 22.0542C62.5298 21.9579 62.5502 21.8464 62.4635 21.7806C62.3308 21.7604 62.1982 21.7857 62.0656 21.7654C62.0604 21.664 62.0604 21.5627 62.0707 21.4614ZM63.6521 21.4664C63.8409 21.4613 64.0296 21.4512 64.2184 21.4765C64.2082 21.6235 64.3306 21.7248 64.3663 21.8616C64.4173 22.0339 64.4939 22.196 64.5449 22.3683C64.5857 22.4443 64.6571 22.5102 64.6316 22.6064C64.7336 22.2112 64.8918 21.8363 65.0499 21.4664C65.2285 21.4613 65.4121 21.4563 65.5958 21.4664C65.6059 22.0085 65.5958 22.5608 65.5958 23.103C65.4733 23.1131 65.3508 23.1131 65.2233 23.103C65.2285 22.723 65.2233 22.343 65.2335 21.968C65.1877 22.0086 65.1417 22.044 65.106 22.0947C65.0397 22.4392 64.8611 22.7534 64.7744 23.0979C64.6724 23.1132 64.5755 23.1132 64.4734 23.103C64.4428 22.9105 64.305 22.7534 64.305 22.5558C64.1674 22.3886 64.1622 22.1505 64.0551 21.963C63.9837 22.0998 64.0398 22.2619 64.0245 22.4089C64.0041 22.647 64.05 22.8902 64.0041 23.1284C63.8817 23.1284 63.7439 23.1689 63.647 23.0828C63.6623 22.5456 63.647 22.0086 63.6521 21.4664Z" fill="#393B42" stroke="#393B42" stroke-width="0.0602391"/>
</g>
<defs>
<clipPath id="clip0_2609_269">
<rect width="66" height="23" fill="white" transform="translate(0.340668)"/>
</clipPath>
</defs>
</svg>
