<svg width="74" height="19" viewBox="0 0 74 19" fill="none" xmlns="http://www.w3.org/2000/svg">
<g clip-path="url(#clip0_2609_261)">
<path d="M42.9666 18.9853C41.4891 19.0323 40.1081 18.7688 38.7272 18.4926C38.4611 18.4397 38.3724 18.331 38.3793 18.0597C38.4581 14.7855 38.4522 11.5112 38.4502 8.23701C38.4502 7.07344 38.465 5.90792 38.4266 4.74533C38.4078 4.16747 38.4266 3.58373 38.2915 3.00978C38.0944 2.16943 37.775 1.85111 36.9264 1.73946C36.7292 1.71399 36.6031 1.67579 36.5991 1.43485C36.5952 1.19783 36.678 1.09499 36.9136 1.05288C38.607 0.747293 40.2984 0.430937 41.9908 0.119477C42.2392 0.0734442 42.2963 0.126334 42.2648 0.375109C42.2214 0.721828 42.2461 1.06953 42.2342 1.41625C42.184 2.90988 42.1859 4.40351 42.1889 5.89715C42.1889 6.18902 42.1918 6.18902 42.457 6.05973C43.6753 5.4662 44.9537 5.26639 46.2775 5.57981C47.7225 5.92261 48.7229 6.85013 49.409 8.12144C50.0427 9.29479 50.2724 10.5602 50.23 11.8922C50.1935 13.0529 50.0073 14.1724 49.5272 15.2331C48.6322 17.2096 47.0729 18.3634 44.9685 18.8315C44.2894 18.9824 43.6014 19.0108 42.9686 18.9853H42.9666ZM42.1869 11.4691C42.1731 13.4055 42.1849 15.3408 42.2392 17.2772C42.2589 17.9794 42.2579 17.95 42.9557 17.9931C43.8172 18.047 44.4293 17.667 44.9212 17.0166C45.2878 16.5308 45.5343 15.9853 45.7186 15.4123C46.1927 13.9373 46.3277 12.4231 46.1927 10.8854C46.1119 9.97158 45.9147 9.08226 45.4613 8.26933C45.0868 7.5994 44.5821 7.08128 43.7867 6.92457C43.3352 6.83544 42.9045 6.9373 42.4698 7.05092C42.2539 7.10772 42.181 7.20763 42.182 7.43094C42.1918 8.77668 42.1869 10.1224 42.1869 11.4691Z" fill="#393B42"/>
<path d="M8.18807 0.413316C10.5133 0.413316 12.8395 0.413316 15.1647 0.413316C15.5658 0.413316 15.5727 0.417233 15.5787 0.821739C15.6003 2.30656 15.6151 3.79138 15.6437 5.2762C15.6476 5.50636 15.5718 5.61214 15.347 5.67874C14.6235 5.8952 14.7852 5.85602 14.5733 5.29578C14.2204 4.36336 13.8113 3.46621 13.078 2.75318C12.4403 2.1332 11.6695 1.81586 10.7912 1.7904C9.82133 1.76297 8.85044 1.78746 7.88054 1.77864C7.6765 1.77668 7.60652 1.84818 7.6006 2.04897C7.57596 2.93339 7.54344 3.8188 7.50401 4.70323C7.44388 6.04015 7.45374 7.37708 7.45078 8.71498C7.45078 9.06562 7.45177 9.0666 7.79774 9.0617C8.44434 9.0519 9.08996 9.03232 9.73262 8.96082C10.2107 8.90793 10.5754 8.65132 10.8514 8.2615C11.1707 7.80999 11.3225 7.29676 11.4398 6.76787C11.4989 6.50146 11.9987 6.33594 12.2195 6.50636C12.3102 6.57688 12.2826 6.6807 12.2835 6.77277C12.2855 7.76297 12.2845 8.75318 12.2845 9.74436C12.2845 10.5867 12.2845 11.43 12.2845 12.2723C12.2845 12.5446 12.1432 12.6804 11.8607 12.6797C11.8262 12.6797 11.7907 12.6758 11.7562 12.6797C11.5591 12.7052 11.4763 12.6112 11.4408 12.4241C11.356 11.9696 11.221 11.5308 10.9903 11.1244C10.6385 10.5054 10.116 10.1802 9.3896 10.1724C8.8396 10.1675 8.28959 10.141 7.73958 10.1126C7.52471 10.1019 7.44783 10.1763 7.44684 10.3937C7.436 12.0529 7.49415 13.7101 7.6213 15.3634C7.65974 15.8648 7.75043 16.3624 7.96235 16.8286C8.1861 17.3232 8.54389 17.6415 9.1008 17.7189C9.41227 17.762 9.72178 17.8198 10.0313 17.8737C10.2915 17.9197 10.3092 17.9784 10.2915 18.4192C10.2826 18.6435 10.1535 18.667 9.97904 18.667C7.01511 18.667 4.05119 18.667 1.08727 18.666C0.936462 18.666 0.788611 18.6729 0.768898 18.4535C0.729471 18.0274 0.763969 17.9256 1.0163 17.8707C1.25484 17.8188 1.49337 17.7542 1.73486 17.7267C2.37358 17.6523 2.757 17.286 2.97582 16.7111C3.16409 16.2184 3.24984 15.7042 3.28335 15.1841C3.36221 13.954 3.37305 12.7209 3.41445 11.4887C3.45979 10.1332 3.46176 8.77864 3.43219 7.42507C3.4036 6.0901 3.40459 4.75122 3.23111 3.42311C3.1838 3.0617 3.10495 2.70617 2.96498 2.36532C2.72053 1.77179 2.28191 1.4378 1.64516 1.35357C1.52392 1.3379 1.40269 1.32027 1.28145 1.31145C0.935805 1.28599 0.764626 1.10414 0.767912 0.765911C0.770869 0.438781 0.792554 0.414295 1.13163 0.413316C2.63576 0.411357 4.13892 0.413316 5.64306 0.413316C6.49074 0.413316 7.3394 0.413316 8.18708 0.413316H8.18807Z" fill="#393B42"/>
<path d="M19.9994 18.9892C18.8452 19.0333 17.7225 18.7914 16.6915 18.192C15.4239 17.4544 14.6127 16.3487 14.178 14.9755C13.5886 13.1185 13.5639 11.2537 14.2086 9.39862C15.0306 7.03231 17.1547 5.45836 19.6653 5.29578C20.9013 5.21644 22.094 5.34083 23.2216 5.85699C24.7139 6.53965 25.6739 7.71595 26.1668 9.24583C26.8272 11.2958 26.8567 13.3634 25.9578 15.3526C24.8972 17.7003 23.0067 18.8815 20.4282 18.9882C20.2971 18.9941 20.166 18.9882 19.9994 18.9882V18.9892ZM22.6105 12.0979C22.6282 11.3114 22.572 10.3252 22.3808 9.34964C22.2093 8.47501 21.9708 7.62291 21.405 6.904C20.6125 5.89617 19.27 5.97942 18.6066 7.07345C18.3326 7.52496 18.169 8.01762 18.0557 8.52888C17.8753 9.34475 17.8171 10.1743 17.7708 11.0068C17.6929 12.382 17.754 13.7473 18.0192 15.0989C18.1897 15.9647 18.447 16.8031 19.0374 17.4946C19.7214 18.2977 20.9082 18.2713 21.5647 17.4466C21.8909 17.0372 22.091 16.569 22.226 16.0705C22.5612 14.8354 22.6075 13.571 22.6095 12.097L22.6105 12.0979Z" fill="#393B42"/>
<path d="M59.0656 11.5789C57.8857 11.5789 56.7059 11.5789 55.5251 11.5789C55.1939 11.5789 55.187 11.5877 55.187 11.9148C55.187 12.9814 55.3723 14.0078 55.8927 14.953C56.627 16.288 57.7862 16.9481 59.2962 17.0382C60.3608 17.1019 61.3455 16.8805 62.2168 16.2419C62.3183 16.1675 62.4327 16.0617 62.55 16.2292C62.6574 16.3839 62.8664 16.5054 62.6771 16.7424C62.3597 17.1401 62.0019 17.4976 61.5879 17.7894C60.4988 18.5583 59.2933 18.9677 57.9429 18.998C56.6221 19.0284 55.388 18.7738 54.2634 18.0754C52.6972 17.1028 51.7923 15.6729 51.4365 13.8972C51.0324 11.8815 51.2778 9.9481 52.3541 8.17141C53.4206 6.40941 55.0283 5.48874 57.0814 5.30069C58.0848 5.20863 59.0557 5.30461 59.9783 5.71597C61.2922 6.30167 62.0729 7.35456 62.5302 8.6719C62.823 9.51519 62.9491 10.3898 62.9639 11.2821C62.9679 11.5122 62.8811 11.5837 62.6574 11.5828C61.4598 11.5759 60.2622 11.5798 59.0646 11.5798L59.0656 11.5789ZM56.4131 10.5338C56.4131 10.5123 56.4131 10.4907 56.4131 10.4701C57.2066 10.4701 58.0011 10.4652 58.7945 10.4741C59.0084 10.476 59.0656 10.3888 59.0577 10.1939C59.0281 9.4574 58.9828 8.72087 58.8231 7.99903C58.7255 7.55828 58.5905 7.12831 58.3342 6.74438C57.9823 6.21842 57.4146 6.06171 56.8488 6.34673C56.56 6.49168 56.3461 6.72087 56.1726 6.98532C55.5132 7.99021 55.3082 9.12929 55.1958 10.2948C55.1781 10.4799 55.2698 10.5397 55.4442 10.5367C55.7675 10.5299 56.0898 10.5348 56.4131 10.5348V10.5338Z" fill="#393B42"/>
<path d="M68.2816 18.9882C66.8435 19.0176 65.5563 18.8002 64.2966 18.4094C63.851 18.2713 63.8648 18.2595 63.8215 17.8041C63.782 17.379 63.7909 16.954 63.7811 16.5289C63.7653 15.904 63.7663 15.2781 63.7298 14.6543C63.7101 14.3193 63.9437 14.3085 64.1556 14.2419C64.3892 14.1694 64.4375 14.335 64.4986 14.4946C64.7993 15.2674 65.1472 16.0157 65.6962 16.6503C66.4858 17.5622 67.4882 17.9197 68.6601 17.6474C69.7887 17.3849 70.3033 16.3154 70.0145 15.2027C69.8972 14.7493 69.5502 14.4525 69.1737 14.2047C68.4157 13.7062 67.5463 13.4495 66.7144 13.1107C65.8796 12.7698 65.1058 12.334 64.5844 11.5681C63.6421 10.1831 63.8254 8.09989 64.9915 6.85405C65.9012 5.88246 67.0496 5.41723 68.3595 5.30459C69.699 5.19 71.01 5.33789 72.2943 5.72967C72.3949 5.76003 72.4915 5.80312 72.593 5.82761C72.8601 5.89127 72.9212 6.05778 72.9399 6.32222C73.004 7.24975 72.936 8.18118 73.0178 9.10773C73.0425 9.38686 72.9813 9.42506 72.6048 9.52203C72.3594 9.58471 72.3259 9.42506 72.2677 9.26737C71.9572 8.42212 71.6073 7.60038 70.9282 6.96669C70.387 6.4613 69.7335 6.24485 69.0061 6.29872C68.121 6.36434 67.4852 7.06659 67.4133 7.95004C67.3393 8.84818 67.8223 9.39764 68.5251 9.83251C69.3087 10.3173 70.1761 10.6249 71.013 10.998C71.7847 11.3418 72.5141 11.7493 73.0375 12.4378C73.4515 12.9824 73.6506 13.5965 73.6654 14.2801C73.6802 14.954 73.6447 15.617 73.3756 16.2478C72.7901 17.6219 71.696 18.3829 70.2944 18.7718C69.5975 18.9647 68.8859 19.0255 68.2787 18.9873L68.2816 18.9882Z" fill="#393B42"/>
<path d="M32.2582 7.98042C32.5431 7.5671 32.7816 7.14595 33.0931 6.76886C33.8294 5.8766 34.7342 5.28796 35.923 5.22724C36.4079 5.20275 36.8761 5.31049 37.3187 5.52303C37.5079 5.61411 37.4764 5.7385 37.4192 5.88934C37.0644 6.82371 36.7154 7.76005 36.3606 8.69443C36.1625 9.21549 36.1635 9.20765 35.6657 8.96867C34.6899 8.49952 33.6993 8.38787 32.686 8.85995C32.3627 9.01078 32.203 9.22038 32.208 9.60628C32.2227 10.761 32.1261 11.9158 32.1715 13.0705C32.2178 14.2233 32.1951 15.38 32.3519 16.5269C32.4869 17.5123 32.8388 17.8129 33.716 17.8531C33.8728 17.86 34.0295 17.8776 34.1862 17.8854C34.4021 17.8962 34.4839 17.9951 34.479 18.2174C34.4691 18.6709 34.4809 18.6719 34.0137 18.6719C31.6885 18.6719 29.3623 18.6719 27.0371 18.6719C26.6793 18.6719 26.4822 18.3193 26.6576 17.9961C26.6951 17.9266 26.7621 17.906 26.8311 17.8923C26.9257 17.8746 27.0213 17.8619 27.116 17.8521C27.8779 17.7698 28.2081 17.4457 28.3609 16.5495C28.4624 15.9569 28.4437 15.3536 28.4575 14.7571C28.4979 13.0637 28.5077 11.3693 28.4604 9.67582C28.4456 9.13223 28.4417 8.58081 28.3076 8.04604C28.1421 7.38885 27.8424 7.12734 27.1672 7.04996C27.0894 7.04115 27.0125 7.01862 26.9346 7.01568C26.7217 7.00687 26.6281 6.91578 26.629 6.69051C26.63 6.47503 26.7089 6.38591 26.9208 6.34477C28.6083 6.01274 30.2948 5.66994 31.9813 5.33106C32.3026 5.26642 32.3331 5.28307 32.3134 5.61607C32.272 6.33596 32.2661 7.05682 32.2582 7.77768C32.2582 7.84624 32.2582 7.9148 32.2582 7.98238V7.98042Z" fill="#393B42"/>
<path d="M18.8018 18.9187C17.5293 18.7346 16.4175 18.1998 15.5678 17.3634C14.8591 16.666 14.3998 15.8991 14.0607 14.8472C13.5314 13.2057 13.5314 11.096 14.0607 9.48874C14.5733 7.93047 15.7265 6.57493 17.138 5.87072C19.0926 4.89521 21.8446 4.95691 23.6543 6.01568C25.2836 6.96866 26.2703 8.6621 26.5453 10.9755C26.629 11.6817 26.5748 13.1743 26.4428 13.7894C25.9026 16.3105 24.3285 18.0715 22.022 18.7346C21.7736 18.8061 21.3882 18.8893 21.1655 18.9207C20.6943 18.9853 19.2582 18.9843 18.8018 18.9187ZM21.5548 18.7238C22.4853 18.5074 23.2275 18.1783 23.8908 17.6856C25.5044 16.4878 26.3885 14.6523 26.4704 12.3291C26.5512 10.0392 25.8563 8.08718 24.5118 6.82861C23.4207 5.80706 22.0466 5.31734 20.2695 5.31734C18.3859 5.31734 16.8689 5.89815 15.7019 7.06465C14.452 8.3144 13.7906 10.0588 13.7906 12.1058C13.7906 14.1528 14.388 15.9432 15.5471 17.144C16.1858 17.8061 16.8078 18.2037 17.6998 18.5181C18.0152 18.6298 18.2469 18.6836 19.0906 18.8384C19.1626 18.8521 19.6465 18.8541 20.166 18.8443C20.8688 18.8306 21.2246 18.7992 21.5568 18.7218L21.5548 18.7238ZM19.5637 17.9834C18.7023 17.5945 18.0911 16.4143 17.7846 14.5455C17.5904 13.3614 17.5717 10.7277 17.7491 9.43683C17.9975 7.62488 18.5229 6.55339 19.34 6.19197C19.8998 5.94418 20.6766 6.09109 21.1753 6.53869C22.2842 7.5338 22.8431 10.3634 22.6016 13.7542C22.4281 16.1871 21.8968 17.5064 20.9062 17.9647C20.5474 18.1312 19.9117 18.1401 19.5637 17.9834ZM20.7042 17.907C21.0758 17.7973 21.5341 17.3702 21.7785 16.906C22.2832 15.9471 22.5079 14.5299 22.5139 12.2782C22.5208 9.4574 22.0762 7.6621 21.1359 6.72185C20.7416 6.32714 20.4617 6.20471 19.957 6.20569C18.8373 6.20765 18.1266 7.36827 17.8467 9.65525C17.7176 10.7062 17.7166 13.2106 17.8457 14.1293C18.2429 16.9736 19.27 18.3301 20.7042 17.907ZM41.3333 18.9187C40.8129 18.8658 39.222 18.6033 38.6671 18.478L38.2827 18.3908L38.3122 16.3516C38.3842 11.4407 38.3931 8.76005 38.3467 6.1528C38.3014 3.59942 38.2876 3.3291 38.188 2.95103C38.0629 2.47209 37.8815 2.13811 37.6637 1.98434C37.5789 1.92459 37.3492 1.83938 37.1521 1.7953C36.4986 1.64937 36.5341 1.67288 36.5173 1.37709C36.5075 1.20667 36.5262 1.09403 36.5696 1.05877C36.6297 1.01274 41.9878 -0.00293193 42.1583 6.36287e-06C42.2076 6.36287e-06 42.2145 0.681691 42.1889 3.02449C42.1712 4.68757 42.1692 6.048 42.184 6.048C42.1988 6.048 42.3949 5.96377 42.6186 5.86093C43.2948 5.55045 43.9178 5.41626 44.8226 5.38492C45.4249 5.36435 45.7038 5.37709 46.0133 5.44075C48.0339 5.85603 49.5302 7.5005 50.0526 9.88052C50.1886 10.5015 50.2399 12.0451 50.1492 12.8178C50.0723 13.477 49.8515 14.3644 49.6229 14.9403C48.7584 17.1136 46.9034 18.5318 44.4431 18.9001C43.8764 18.9853 42.0972 18.9961 41.3333 18.9187ZM44.2973 18.7943C45.8911 18.5573 47.0601 18.0127 48.0497 17.049C49.4809 15.6552 50.1699 13.6876 50.0772 11.2625C50.0289 10.0137 49.8239 9.19883 49.3035 8.18708C48.5977 6.81685 47.3913 5.85505 46.0212 5.57199C44.9931 5.35946 43.6713 5.52596 42.666 5.99413C42.4156 6.11068 42.1751 6.20667 42.1327 6.20667C42.0647 6.20667 42.0578 5.82077 42.0746 3.16553L42.0943 0.124394L41.8833 0.16651C41.768 0.190016 40.5872 0.408429 39.2595 0.652308C37.9318 0.896186 36.7943 1.10872 36.7312 1.12341C36.6346 1.14594 36.6179 1.18218 36.6287 1.34575C36.6405 1.52792 36.6553 1.54457 36.8485 1.58669C37.5138 1.73164 37.6321 1.78355 37.8795 2.0382C38.1821 2.34868 38.3191 2.74633 38.4088 3.57493C38.4808 4.23507 38.4966 15.6112 38.4276 17.2909L38.3872 18.287L38.9283 18.4016C40.9765 18.8364 43.0188 18.9873 44.2963 18.7973L44.2973 18.7943ZM42.4255 18.001C42.319 17.9902 42.2057 17.9491 42.1731 17.9099C42.0834 17.8022 41.9858 10.7258 42.046 8.65525L42.0933 7.01274L42.5132 6.89227C43.1322 6.71499 43.7995 6.74242 44.2716 6.96475C45.2208 7.41137 45.8438 8.51519 46.1681 10.3222C46.2735 10.9109 46.2578 12.955 46.1424 13.6827C45.9009 15.2018 45.4623 16.3741 44.8512 17.1312C44.5545 17.4985 44.0627 17.8453 43.6782 17.9589C43.4299 18.0323 42.8986 18.049 42.4245 18L42.4255 18.001ZM43.4358 17.8815C43.8172 17.81 44.1129 17.6592 44.4313 17.3751C45.2277 16.6631 45.827 15.1939 46.0626 13.3732C46.1582 12.6317 46.1454 10.9422 46.0389 10.3232C45.7511 8.64937 45.1331 7.54849 44.2312 7.10579C43.8567 6.92165 43.7995 6.90892 43.3559 6.90892C43.0385 6.90892 42.7655 6.94222 42.5339 7.01078L42.1859 7.11264L42.1603 9.01764C42.1278 11.4584 42.2076 17.5691 42.2746 17.7444C42.317 17.856 42.3643 17.8795 42.5773 17.8962C43.077 17.9354 43.1598 17.9334 43.4368 17.8815H43.4358ZM56.4171 18.8923C53.8139 18.4261 51.953 16.5916 51.3448 13.8942C51.267 13.5475 51.2325 13.1587 51.2127 12.4084C51.1812 11.2204 51.2788 10.4829 51.5873 9.56612C52.1797 7.80706 53.2413 6.56024 54.7838 5.81293C56.4122 5.02449 58.6378 4.97258 60.0789 5.69051C61.7013 6.49854 62.6554 8.11166 62.8979 10.4535C62.9304 10.7689 62.9492 11.144 62.9403 11.288L62.9225 11.5485L59.04 11.5622L55.1574 11.5759L55.1722 12.0313C55.2067 13.0872 55.4354 14.0216 55.8572 14.8335C56.0494 15.2027 56.2022 15.4035 56.5738 15.7767C57.4126 16.619 58.2475 16.9442 59.5644 16.9442C60.5195 16.9442 61.2055 16.7551 61.9241 16.2938C62.1251 16.1645 62.3292 16.0588 62.3765 16.0588C62.4859 16.0588 62.7382 16.382 62.7382 16.522C62.7382 16.7522 61.9852 17.4927 61.2508 17.9853C60.6496 18.3888 59.6955 18.7542 58.8695 18.8981C58.2899 18.999 56.9898 18.9961 56.4161 18.8942L56.4171 18.8923ZM58.7502 18.7924C59.9655 18.5965 61.1631 18.0167 62.0236 17.2076C62.4948 16.764 62.6515 16.5504 62.5855 16.4378C62.411 16.1391 62.4179 16.1391 61.9714 16.4114C61.2607 16.8453 60.9039 16.9647 60.069 17.05C59.0932 17.1499 58.1933 16.9873 57.3614 16.5622C56.8094 16.2801 56.149 15.6317 55.8178 15.049C55.3674 14.2527 55.1219 13.3232 55.049 12.1293C55.0184 11.6278 55.0253 11.5025 55.0845 11.4652C55.1249 11.4398 56.8745 11.4192 59.0006 11.4182H62.8437V11.2664C62.8437 10.9236 62.7303 10.002 62.6288 9.51911C62.2208 7.57591 61.1424 6.191 59.6058 5.6337C58.9937 5.41235 58.4151 5.31832 57.6531 5.31832C55.8464 5.31832 54.3708 5.90696 53.2284 7.08424C52.3187 8.02253 51.7785 9.0764 51.4483 10.5583C51.3488 11.0049 51.332 11.237 51.332 12.1743C51.332 13.1117 51.3488 13.3448 51.4454 13.7757C52.0575 16.5103 53.8672 18.3105 56.4684 18.7718C57.1278 18.8883 58.0987 18.8972 58.7492 18.7924H58.7502ZM55.0608 10.5436C55.0214 10.4799 55.119 9.55241 55.2166 9.0715C55.4502 7.91284 55.8237 7.0764 56.3382 6.56122C56.6152 6.28404 56.7414 6.19785 56.9671 6.13125C57.1228 6.08522 57.2983 6.048 57.3584 6.048C57.5989 6.048 57.8828 6.17043 58.0947 6.36436C58.6625 6.88443 58.9868 8.00001 59.0508 9.65231L59.0824 10.4682L58.5363 10.4985C57.4412 10.5593 55.0894 10.5896 55.0608 10.5436ZM58.0642 10.3947L58.9769 10.3634L58.9444 9.71891C58.8281 7.44663 58.2692 6.20569 57.3614 6.20667C56.3747 6.20765 55.5872 7.46817 55.2589 9.5671C55.2185 9.82469 55.185 10.1313 55.185 10.2468V10.4574L56.1677 10.4417C56.7089 10.4329 57.5625 10.4114 58.0642 10.3947ZM66.9096 18.9432C65.9752 18.8433 64.4878 18.5201 63.992 18.3085L63.7505 18.2057L63.718 17.0147C63.7002 16.3595 63.6786 15.4838 63.6717 15.0686L63.6579 14.3134L63.8028 14.2439C63.8826 14.2057 64.0433 14.1704 64.1606 14.1645L64.3735 14.1548L64.5548 14.5975C65.2616 16.3262 66.0905 17.2586 67.1738 17.5416C67.5868 17.6494 68.3615 17.6503 68.6671 17.5436C69.5236 17.2429 69.9938 16.5984 69.9977 15.7179C70.0026 14.6748 69.426 14.1743 67.2467 13.3291C65.8963 12.8051 65.4262 12.5358 64.8653 11.9647C64.2601 11.3497 63.9703 10.6494 63.9161 9.67385C63.8501 8.4956 64.2217 7.50148 65.0437 6.65525C65.8717 5.80314 66.9461 5.34183 68.4098 5.20863C69.6991 5.09207 71.6773 5.36338 72.7142 5.79922L72.9035 5.87856L72.937 6.94026C72.9557 7.524 72.9745 8.30657 72.9794 8.67973L72.9883 9.3575L72.7339 9.45152C72.3328 9.59942 72.3062 9.58081 72.0824 8.99315C71.4565 7.34477 70.7291 6.56416 69.5956 6.32616C68.9046 6.1812 68.328 6.33693 67.9081 6.78257C67.5808 7.13027 67.4527 7.43879 67.4221 7.95691C67.3886 8.51813 67.4892 8.82175 67.8351 9.19785C68.261 9.66112 68.9578 10.0598 70.3476 10.6366C72.0489 11.3428 72.8611 11.9432 73.3027 12.8198C73.5895 13.3888 73.6703 13.8443 73.6418 14.7189C73.6201 15.3761 73.5994 15.5103 73.4486 15.952C72.9587 17.3898 71.8518 18.3359 70.1416 18.7806C69.562 18.9305 69.4802 18.9383 68.328 18.951C67.6646 18.9579 67.0269 18.954 66.9116 18.9422L66.9096 18.9432ZM69.4014 18.7973C71.63 18.4613 73.0701 17.2733 73.4466 15.4584C73.6289 14.5818 73.5442 13.6073 73.2278 12.9559C72.7862 12.0441 72.0381 11.4927 70.188 10.715C68.8129 10.1371 67.9889 9.64741 67.6518 9.20862C67.3729 8.84526 67.2822 8.56612 67.2861 8.0813C67.292 7.35064 67.57 6.79139 68.1023 6.44173C68.5478 6.14986 69.1057 6.07836 69.7562 6.23017C70.5418 6.41431 71.1322 6.89325 71.6655 7.77865C71.835 8.06073 72.1839 8.85211 72.3545 9.33987C72.3811 9.41529 72.4116 9.4192 72.594 9.36533C72.7093 9.33105 72.8197 9.28796 72.8394 9.26837C72.8591 9.24878 72.8581 8.50148 72.8365 7.60921L72.798 5.98531L72.6078 5.905C72.2865 5.76984 71.4476 5.54359 70.8957 5.44271C70.4797 5.36631 70.115 5.34672 69.1382 5.3477C67.9722 5.34868 67.8775 5.35652 67.3965 5.48678C65.9979 5.86386 64.9619 6.64741 64.4198 7.7385C64.132 8.31832 64.0324 8.76494 64.0354 9.46328C64.0403 10.4554 64.3124 11.1871 64.9136 11.8266C65.4311 12.3771 66.1043 12.7698 67.2497 13.19C68.1515 13.5211 69.082 13.9834 69.4349 14.2742C69.6419 14.4456 69.8055 14.6415 69.9267 14.8639C70.0992 15.1812 70.1081 15.2223 70.1081 15.7189C70.1081 16.1969 70.0943 16.2693 69.9415 16.5896C69.5423 17.4261 68.7449 17.8413 67.7011 17.7561C66.2817 17.6406 65.2823 16.7081 64.4691 14.7395C64.2572 14.2263 64.2424 14.2155 63.9201 14.3369L63.7722 14.3928L63.8097 16.2292C63.8422 17.859 63.857 18.0725 63.9348 18.1322C64.1684 18.3095 65.6785 18.666 66.7253 18.7904C67.5385 18.8864 68.7863 18.8903 69.4014 18.7973ZM0.740317 18.6298C0.696947 18.6122 0.674277 18.4819 0.674277 18.2419C0.674277 17.81 0.646678 17.8296 1.48746 17.6739C2.13209 17.5553 2.36274 17.4329 2.6476 17.0627C3.19957 16.3428 3.31884 14.9579 3.32081 9.25466C3.3218 3.89815 3.2183 2.7718 2.64661 1.9432C2.39329 1.57591 1.9665 1.37611 1.2509 1.29188L0.699904 1.22626L0.685119 0.799223L0.670334 0.37219L0.842827 0.341828C0.937452 0.325178 4.27297 0.318322 8.25411 0.326157L15.4929 0.340849L15.5264 0.549468C15.5451 0.664061 15.5757 1.84036 15.5944 3.16357L15.6289 5.56906L15.2554 5.68169C14.6935 5.85113 14.6965 5.85309 14.4441 5.18904C13.8232 3.5573 13.1115 2.61607 12.1377 2.14104C11.4654 1.81391 11.1549 1.77376 9.25851 1.77376H7.60751L7.57892 2.04702C7.5257 2.56024 7.44093 5.86191 7.44191 7.41626V8.96671L7.92785 8.96377C8.19497 8.96181 8.72132 8.9432 9.09785 8.92067C9.66362 8.88737 9.83217 8.85701 10.0687 8.74829C10.6503 8.48091 11.0455 7.89227 11.288 6.93341L11.4132 6.43879L11.841 6.4241L12.2688 6.40941V12.6739L11.84 12.6592L11.4112 12.6445L11.29 12.1489C11.0613 11.2184 10.6217 10.5524 10.0786 10.3134C9.82725 10.2027 9.20726 10.1401 8.00572 10.1038L7.44191 10.0872V11.2635C7.44191 12.5455 7.51288 14.2801 7.60356 15.2223C7.73072 16.5348 8.06782 17.2596 8.67401 17.522C8.78933 17.572 9.156 17.6533 9.48817 17.7032C9.82035 17.7522 10.1328 17.8139 10.1831 17.8404C10.3112 17.906 10.3191 18.5857 10.1919 18.6337C10.0924 18.6719 0.833956 18.669 0.739331 18.6308L0.740317 18.6298ZM10.1712 18.2214C10.1712 18.0637 10.1574 17.9344 10.1397 17.9344C9.88934 17.9344 8.72526 17.6846 8.53798 17.5916C7.87167 17.2586 7.56414 16.4662 7.44389 14.7777C7.35912 13.5779 7.27435 10.0529 7.32955 9.99805C7.37883 9.94908 9.59758 10.0362 9.85682 10.0979C10.5734 10.2684 11.1264 10.9687 11.4024 12.0588L11.5246 12.5387L11.8449 12.5544L12.1653 12.57V6.51813H11.8242C11.5058 6.51813 11.4832 6.52596 11.4832 6.63566C11.4832 6.8335 11.2841 7.45838 11.0958 7.85211C10.8011 8.46915 10.3851 8.84232 9.85682 8.96279C9.72671 8.99217 9.11362 9.04016 8.49461 9.06857C7.62131 9.10872 7.35912 9.10578 7.32659 9.05681C7.26548 8.96573 7.40446 2.10187 7.47346 1.78355L7.49908 1.66308L9.42509 1.67875L11.3511 1.69442L11.7996 1.85407C12.8375 2.22332 13.5846 2.97846 14.2096 4.28796C14.3495 4.58179 14.5299 5.01078 14.6088 5.23997C14.6886 5.46915 14.7586 5.66406 14.7655 5.67288C14.7724 5.68169 14.9439 5.6386 15.1489 5.57689L15.5205 5.46524L15.4949 3.76298C15.4801 2.82665 15.4554 1.70226 15.4387 1.26543L15.4081 0.470134H0.774815L0.790586 0.795305L0.806357 1.12048L1.27849 1.17924C1.90834 1.2576 2.13899 1.32616 2.39329 1.50833C2.7777 1.78551 3.01427 2.19197 3.1631 2.83154C3.39474 3.82665 3.47753 6.06955 3.43909 10.2693C3.39868 14.7072 3.34151 15.6298 3.05764 16.525C2.82305 17.2615 2.38738 17.6513 1.66784 17.7698C1.46972 17.8022 1.1888 17.8541 1.0439 17.8854L0.780729 17.9412V18.5064H10.1722V18.2194L10.1712 18.2214ZM26.6034 18.62C26.5551 18.5896 26.5403 18.4692 26.5512 18.2165L26.5669 17.856L26.7503 17.8169C26.8508 17.7953 27.0687 17.7532 27.2323 17.7228C27.7399 17.6288 28.0326 17.3546 28.1963 16.8178C28.3303 16.381 28.3895 14.9824 28.3924 12.1734C28.3964 8.7385 28.3244 7.92753 27.9745 7.4672C27.7852 7.21842 27.6482 7.14692 27.1889 7.05975C26.9622 7.01666 26.7237 6.96964 26.6586 6.95691C26.5531 6.93536 26.5403 6.90108 26.5403 6.64545C26.5403 6.38982 26.5561 6.3526 26.6586 6.31049C26.8153 6.24682 32.0128 5.2145 32.1794 5.2145H32.3085L32.2829 5.98336C32.2691 6.40647 32.2464 7.02253 32.2336 7.35162L32.2089 7.95103L32.3972 7.61411C33.0004 6.5338 33.6756 5.86386 34.5746 5.45446C35.0684 5.23017 35.3976 5.16259 36.0067 5.16259C36.7292 5.16259 37.4527 5.39668 37.4527 5.63174C37.4527 5.78943 36.1792 9.13419 36.1083 9.16063C36.0738 9.17337 35.8254 9.07934 35.5553 8.95005C34.9925 8.68169 34.4652 8.55045 33.9526 8.55143C33.3149 8.55241 32.6022 8.78649 32.3203 9.0862C32.2001 9.2145 32.1991 9.22234 32.1695 11.1371C32.1399 13.0343 32.203 15.3477 32.3105 16.2782C32.4021 17.0705 32.6141 17.4613 33.0517 17.6425C33.1976 17.7032 34.1221 17.8286 34.4238 17.8296C34.4464 17.8296 34.4583 18.0118 34.4504 18.2341L34.4346 18.6386L30.552 18.6513C28.4171 18.6582 26.6389 18.6445 26.6014 18.621L26.6034 18.62ZM34.3577 18.2253V17.9432L33.9506 17.9089C33.0133 17.8306 32.756 17.7365 32.5096 17.3839C32.1528 16.8737 32.0749 15.9305 32.0749 12.1126V9.13223L32.205 8.99511C32.3686 8.82175 32.8822 8.57885 33.2449 8.50441C33.9812 8.35162 34.9235 8.48385 35.6598 8.84232C35.8707 8.94516 36.0531 9.02057 36.0639 9.0098C36.0856 8.98825 37.295 5.81196 37.3325 5.67777C37.3492 5.61705 37.2802 5.56416 37.0762 5.48287C36.6405 5.30951 36.263 5.25074 35.7761 5.27816C34.473 5.35358 33.3168 6.21352 32.484 7.72674C32.346 7.97846 32.202 8.18414 32.1656 8.18414C32.1123 8.18414 32.1055 7.89619 32.135 6.74829L32.1705 5.31147L32.0443 5.34085C31.9744 5.3575 30.9266 5.56808 29.7142 5.81C27.115 6.32812 26.7532 6.40353 26.6921 6.44173C26.6665 6.4574 26.6458 6.55045 26.6458 6.64839C26.6458 6.84526 26.6231 6.8335 27.2136 6.92851C28.0257 7.05779 28.3126 7.45152 28.4328 8.60138C28.5905 10.1009 28.5275 15.9452 28.3451 16.7434C28.2515 17.1518 28.01 17.5446 27.7675 17.6836C27.6778 17.7356 27.3939 17.8188 27.1377 17.8678L26.6714 17.9579L26.6557 18.2312L26.6399 18.5044H34.3577V18.2223V18.2253Z" fill="#393B42"/>
</g>
<defs>
<clipPath id="clip0_2609_261">
<rect width="73" height="19" fill="white" transform="translate(0.670334)"/>
</clipPath>
</defs>
</svg>
