<svg width="194" height="29" viewBox="0 0 194 29" fill="none" xmlns="http://www.w3.org/2000/svg">
<g clip-path="url(#clip0_2603_26)">
<path d="M11.3403 13.7356C10.3372 13.3774 9.22208 13.0892 7.98893 12.8708L7.06554 12.7077C6.31621 12.5767 5.72324 12.3874 5.28367 12.137C4.8441 11.8865 4.62284 11.5022 4.62284 10.9809C4.62284 10.5034 4.8323 10.1277 5.25122 9.85691C5.67013 9.5861 6.27491 9.44924 7.06554 9.44924C7.85617 9.44924 8.5229 9.62396 9.06277 9.97048C9.60265 10.317 9.95961 10.9052 10.1366 11.7293L13.9983 10.5558C13.6237 9.25123 12.833 8.20002 11.6205 7.39632C10.411 6.59263 8.89167 6.19078 7.06554 6.19078C5.12731 6.19078 3.5667 6.61884 2.3778 7.47786C1.1889 8.33688 0.595925 9.56863 0.595925 11.176C0.595925 12.2418 0.882086 13.1095 1.45441 13.7822C2.02673 14.4549 2.78491 14.9819 3.7319 15.3634C4.67889 15.7449 5.72324 16.0419 6.86788 16.2603L7.79127 16.4233C8.75891 16.5981 9.46399 16.8194 9.90356 17.0902C10.3431 17.361 10.5644 17.7483 10.5644 18.2462C10.5644 18.7442 10.3343 19.1635 9.87111 19.5013C9.40794 19.839 8.69401 20.005 7.72637 20.005C7.08914 20.005 6.49912 19.9118 5.95925 19.7284C5.41937 19.5449 4.968 19.2334 4.60514 18.7995C4.24227 18.3656 3.98266 17.7687 3.82926 17.0086L0 17.987C0.286162 19.6818 1.1122 20.9834 2.47515 21.8978C3.83811 22.8092 5.59048 23.2664 7.72342 23.2664C9.85636 23.2664 11.4819 22.8063 12.7239 21.8803C13.9659 20.9572 14.5884 19.6469 14.5884 17.955C14.5884 16.8252 14.2963 15.9283 13.7122 15.2673C13.128 14.6063 12.3374 14.0938 11.3344 13.7356H11.3403Z" fill="#653DF5"/>
<path d="M29.7756 14.8596C29.7756 16.3593 29.4245 17.527 28.7194 18.3627C28.0144 19.1984 27.0231 19.6177 25.7487 19.6177C24.6276 19.6177 23.7632 19.3149 23.1585 18.7063C22.5537 18.0977 22.2498 17.1863 22.2498 15.9691V6.64795H18.0901V16.2923C18.0901 17.6172 18.3557 18.7907 18.8837 19.8128C19.4118 20.8349 20.1552 21.6328 21.1111 22.2064C22.0669 22.783 23.185 23.0713 24.4624 23.0713C25.9375 23.0713 27.0379 22.8092 27.7636 22.288C28.4893 21.7667 28.9849 21.2339 29.2505 20.6922H29.8434V22.8092H33.9382V6.64795H29.7785V14.8596H29.7756Z" fill="#653DF5"/>
<path d="M44.4495 7.03815C43.889 7.34391 43.4877 7.82146 43.2458 8.47083H42.6529V6.64504H38.5581V22.8063H42.7178V13.6162C42.7178 12.466 43.06 11.6128 43.7415 11.0595C44.4229 10.5063 45.2932 10.2296 46.3494 10.2296H48.3967V6.58098H46.4172C45.6679 6.58098 45.013 6.7324 44.4524 7.03815H44.4495Z" fill="#653DF5"/>
<path d="M58.495 4.365C58.495 3.71272 58.8018 3.38659 59.4184 3.38659H62.2564V0H57.964C56.8842 0 56.011 0.331961 55.3384 0.992971C54.6658 1.65689 54.3324 2.53921 54.3324 3.64866V6.64504H50.1727V10.0345H54.3324V22.8063H58.4921V10.0345H62.7845V6.64504H58.4921V4.365H58.495Z" fill="#653DF5"/>
<path d="M79.5559 18.4413V12.4136C79.5559 10.3927 78.9276 8.85229 77.6738 7.78652C76.42 6.72367 74.7148 6.19078 72.5582 6.19078C71.151 6.19078 69.9562 6.40335 68.9768 6.82558C67.9974 7.24781 67.2156 7.80399 66.6344 8.4883C66.0503 9.17261 65.6284 9.9268 65.3629 10.7538L69.1922 12.0234C69.3456 11.2838 69.676 10.681 70.1834 10.2151C70.6908 9.74917 71.4608 9.5133 72.4933 9.5133C73.5259 9.5133 74.3195 9.75791 74.8033 10.2471C75.2871 10.7363 75.529 11.3595 75.529 12.1195V13.0309H71.0389C69.8058 13.0309 68.7113 13.2202 67.7554 13.6017C66.7996 13.9831 66.0503 14.5451 65.5104 15.2964C64.9705 16.0448 64.7021 16.9737 64.7021 18.0831C64.7021 19.1926 64.9705 20.1302 65.5104 20.9019C66.0503 21.6736 66.7819 22.2589 67.7053 22.6607C68.6287 23.0626 69.676 23.2635 70.8413 23.2635C72.0066 23.2635 72.8887 23.1004 73.5495 22.7743C74.2103 22.4481 74.6941 22.0725 75.0009 21.6503C75.3078 21.228 75.5054 20.8844 75.5939 20.6253H76.2223V20.6573C76.2223 21.3096 76.4878 21.8308 77.0159 22.221C77.5439 22.6112 78.2136 22.8063 79.0308 22.8063H81.8039V19.4168H80.4823C79.8657 19.4168 79.5589 19.0907 79.5589 18.4384L79.5559 18.4413ZM75.529 16.4204C75.529 17.4862 75.1603 18.3365 74.4227 18.9771C73.6852 19.6177 72.7323 19.938 71.567 19.938C70.6879 19.938 70.0152 19.7546 69.5521 19.3848C69.0889 19.015 68.8588 18.5374 68.8588 17.9521C68.8588 17.3668 69.0771 16.9096 69.5196 16.5835C69.9592 16.2574 70.564 16.0943 71.3339 16.0943H75.5261V16.4204H75.529Z" fill="#653DF5"/>
<path d="M95.1532 18.6539C94.5042 19.2945 93.5513 19.6148 92.2975 19.6148C91.4597 19.6148 90.7074 19.4343 90.0348 19.0761C89.3621 18.7179 88.8341 18.1851 88.4505 17.4804C88.0641 16.7757 87.8723 15.9108 87.8723 14.8887V14.5626C87.8723 13.5405 88.0641 12.6786 88.4505 11.971C88.8341 11.2663 89.3621 10.7334 90.0348 10.3752C90.7044 10.0171 91.4597 9.83652 92.2975 9.83652C93.1353 9.83652 93.8316 9.98794 94.395 10.2937C94.9556 10.5995 95.3892 11.01 95.699 11.5313C96.0058 12.0525 96.2064 12.6378 96.292 13.2901L100.319 12.4427C100.098 11.2488 99.6433 10.1772 98.95 9.23375C98.2568 8.29028 97.3481 7.54483 96.2271 7.0003C95.106 6.45867 93.7608 6.18495 92.2002 6.18495C90.6395 6.18495 89.1792 6.51109 87.893 7.16336C86.6067 7.81564 85.586 8.75911 84.8396 9.99668C84.0903 11.2343 83.7186 12.7339 83.7186 14.4927V14.9499C83.7186 16.7087 84.0932 18.2083 84.8396 19.4459C85.5889 20.6835 86.6067 21.6299 87.893 22.2822C89.1792 22.9344 90.6159 23.2606 92.2002 23.2606C93.7844 23.2606 95.106 22.9898 96.2271 22.4452C97.3511 21.9036 98.2568 21.1581 98.95 20.2118C99.6433 19.2654 100.133 18.22 100.419 17.0669L96.3923 16.1234C96.2153 17.1659 95.8023 18.0074 95.1532 18.6481V18.6539Z" fill="#653DF5"/>
<path d="M115.438 7.25073C114.249 6.54604 112.851 6.19078 111.246 6.19078C109.641 6.19078 108.187 6.53439 106.954 7.21578C105.721 7.90009 104.765 8.86685 104.08 10.1161C103.399 11.3653 103.057 12.8358 103.057 14.5306V14.9208C103.057 16.6155 103.405 18.0861 104.098 19.3353C104.791 20.5845 105.759 21.5513 107.004 22.2356C108.246 22.9199 109.683 23.2606 111.311 23.2606C112.807 23.2606 114.04 23.0276 115.008 22.5588C115.975 22.0929 116.751 21.528 117.335 20.864C117.919 20.203 118.365 19.5886 118.672 19.0237L115.27 17.2649C114.984 17.8735 114.565 18.4267 114.016 18.9276C113.465 19.4285 112.609 19.676 111.441 19.676C110.273 19.676 109.329 19.3295 108.535 18.6335C107.744 17.9375 107.325 17.0378 107.281 15.9283H119.197V14.5277C119.197 12.8766 118.866 11.4264 118.205 10.1772C117.545 8.928 116.621 7.94959 115.432 7.2449L115.438 7.25073ZM107.317 12.8708C107.47 11.936 107.877 11.1877 108.538 10.6228C109.199 10.0578 110.09 9.77538 111.211 9.77538C112.332 9.77538 113.164 10.0578 113.836 10.6228C114.509 11.1877 114.887 11.936 114.975 12.8708H107.317Z" fill="#653DF5"/>
<path d="M126.053 8.78241C127.032 7.88262 128.271 7.43127 129.767 7.43127C130.932 7.43127 131.918 7.67587 132.72 8.16508C133.523 8.65428 134.157 9.51621 134.617 10.7567C134.726 11.0188 134.832 11.1964 134.93 11.2954C135.027 11.3944 135.189 11.441 135.408 11.441H135.871C136.068 11.441 136.245 11.3769 136.399 11.2459C136.552 11.1149 136.617 10.9431 136.597 10.7247C136.573 10.1394 136.42 9.54242 136.133 8.93383C135.847 8.32523 135.428 7.76614 134.88 7.25655C134.328 6.74696 133.629 6.33347 132.782 6.01898C131.935 5.70449 130.926 5.54724 129.761 5.54724C128.221 5.54724 126.911 5.84717 125.832 6.44412C124.752 7.04107 123.935 7.90009 123.371 9.01827C122.811 10.1365 122.507 11.4789 122.463 13.0426C122.442 13.3687 122.43 13.8026 122.43 14.3471C122.43 14.8917 122.442 15.3255 122.463 15.6517C122.507 17.195 122.811 18.5316 123.371 19.6585C123.932 20.7883 124.752 21.6532 125.832 22.2501C126.908 22.8471 128.218 23.147 129.761 23.147C130.684 23.147 131.516 23.0422 132.254 22.8383C132.991 22.6316 133.623 22.355 134.151 22.0084C134.679 21.6619 135.124 21.2601 135.487 20.8029C135.85 20.3457 136.119 19.8798 136.296 19.4022C136.473 18.9247 136.57 18.4471 136.594 17.9696C136.614 17.7541 136.549 17.5794 136.396 17.4483C136.243 17.3173 136.066 17.2532 135.868 17.2532H135.405C135.183 17.2532 135.024 17.3027 134.927 17.3988C134.826 17.4978 134.723 17.6755 134.614 17.9375C134.151 19.1751 133.52 20.04 132.717 20.5292C131.915 21.0184 130.929 21.263 129.764 21.263C128.268 21.263 127.029 20.8116 126.05 19.9118C125.07 19.012 124.548 17.5386 124.483 15.4973C124.439 14.7373 124.439 13.9773 124.483 13.2173C124.548 11.176 125.07 9.70258 126.05 8.80279L126.053 8.78241Z" fill="white"/>
<path d="M153.781 9.17261C153.22 8.05443 152.406 7.1692 151.338 6.51692C150.27 5.86465 148.946 5.53851 147.362 5.53851C145.777 5.53851 144.45 5.86465 143.385 6.51692C142.317 7.1692 141.503 8.05443 140.942 9.17261C140.382 10.2908 140.078 11.5575 140.033 12.9698C140.01 13.2959 140.001 13.7531 140.001 14.3384C140.001 14.9237 140.013 15.3809 140.033 15.707C140.078 17.0989 140.382 18.3569 140.942 19.4867C141.503 20.6165 142.317 21.5076 143.385 22.1599C144.453 22.8121 145.777 23.1383 147.362 23.1383C148.946 23.1383 150.27 22.8121 151.338 22.1599C152.406 21.5076 153.22 20.6165 153.781 19.4867C154.342 18.3569 154.645 17.096 154.69 15.707C154.71 15.3809 154.722 14.9237 154.722 14.3384C154.722 13.7531 154.71 13.2959 154.69 12.9698C154.645 11.5575 154.342 10.2937 153.781 9.17261ZM152.675 15.5439C152.607 17.3901 152.091 18.8024 151.123 19.7808C150.155 20.7592 148.899 21.2484 147.359 21.2484C145.819 21.2484 144.565 20.7592 143.594 19.7808C142.627 18.8024 142.107 17.3901 142.042 15.5439C142.022 15.2178 142.01 14.816 142.01 14.3384C142.01 13.8608 142.022 13.459 142.042 13.1329C142.107 11.2663 142.627 9.84818 143.594 8.88142C144.562 7.91466 145.816 7.43127 147.359 7.43127C148.901 7.43127 150.152 7.91466 151.123 8.88142C152.091 9.84818 152.607 11.2663 152.675 13.1329C152.695 13.459 152.707 13.8608 152.707 14.3384C152.707 14.816 152.695 15.2178 152.675 15.5439Z" fill="white"/>
<path d="M166.838 5.86465H165.617C164.516 5.86465 163.593 6.0481 162.844 6.41792C162.094 6.78774 161.522 7.35265 161.127 8.11267V6.61302C161.127 6.39754 161.056 6.217 160.911 6.07431C160.77 5.93454 160.587 5.86174 160.366 5.86174H159.838C159.616 5.86174 159.442 5.93163 159.31 6.07431C159.177 6.217 159.112 6.39462 159.112 6.61302V22.09C159.112 22.3084 159.18 22.4802 159.31 22.6112C159.442 22.7423 159.616 22.8063 159.838 22.8063H160.366C160.584 22.8063 160.767 22.7423 160.911 22.6112C161.056 22.4802 161.127 22.3084 161.127 22.09V11.9885C161.127 10.6839 161.51 9.65309 162.283 8.89307C163.053 8.13305 164.098 7.75159 165.419 7.75159H166.838C167.057 7.75159 167.234 7.68753 167.366 7.55649C167.499 7.42545 167.564 7.25365 167.564 7.03525V6.57808C167.564 6.36259 167.499 6.18788 167.366 6.05684C167.234 5.9258 167.057 5.86174 166.838 5.86174V5.86465Z" fill="white"/>
<path d="M184.695 10.4597C184.43 9.54825 184.023 8.72126 183.474 7.98454C182.922 7.24491 182.208 6.65379 181.329 6.20826C180.447 5.76273 179.359 5.54143 178.06 5.54143C176.695 5.54143 175.568 5.78603 174.677 6.27524C173.786 6.76444 173.063 7.37886 172.514 8.11558V6.5839C172.514 6.36842 172.449 6.1937 172.317 6.06266C172.184 5.93163 172.01 5.86756 171.789 5.86756H171.228C171.007 5.86756 170.833 5.93163 170.7 6.06266C170.567 6.1937 170.502 6.36842 170.502 6.5839V28.2837C170.502 28.4992 170.567 28.6739 170.7 28.8049C170.833 28.9359 171.007 29 171.228 29H171.789C172.01 29 172.184 28.9359 172.317 28.8049C172.449 28.6739 172.514 28.4992 172.514 28.2837V20.5612C173.063 21.2775 173.786 21.8861 174.677 22.387C175.568 22.8878 176.695 23.1354 178.06 23.1354C179.426 23.1354 180.447 22.9111 181.329 22.4685C182.208 22.023 182.925 21.4319 183.474 20.6922C184.023 19.9526 184.43 19.1285 184.695 18.2171C184.961 17.3057 185.102 16.3709 185.123 15.4158C185.144 15.0897 185.156 14.7315 185.156 14.3413C185.156 13.9511 185.144 13.5929 185.123 13.2668C185.102 12.3117 184.958 11.377 184.695 10.4655V10.4597ZM183.111 15.2498C183.067 16.2923 182.881 17.2707 182.551 18.1822C182.22 19.0936 181.68 19.8332 180.934 20.3981C180.185 20.9631 179.161 21.2455 177.863 21.2455C176.653 21.2455 175.656 20.9631 174.874 20.3981C174.093 19.8332 173.508 19.1285 173.125 18.2812C172.738 17.4338 172.535 16.5748 172.514 15.707C172.494 15.3809 172.482 14.9586 172.482 14.4374C172.482 13.9162 172.494 13.491 172.514 13.1678C172.559 12.2767 172.762 11.3915 173.125 10.5121C173.488 9.6327 174.054 8.89889 174.824 8.31359C175.594 7.72829 176.606 7.43419 177.86 7.43419C179.114 7.43419 180.182 7.71665 180.931 8.28156C181.68 8.84648 182.217 9.58611 182.548 10.4975C182.878 11.409 183.064 12.3874 183.108 13.4299C183.129 14.0385 183.129 14.6471 183.108 15.2557L183.111 15.2498Z" fill="white"/>
<path d="M193.345 19.4983C192.9 19.0732 192.369 18.8606 191.758 18.8606C191.147 18.8606 190.596 19.0703 190.171 19.4896C189.746 19.9089 189.539 20.4243 189.551 21.0417C189.551 21.6677 189.764 22.1948 190.188 22.6258C190.613 23.0567 191.138 23.2693 191.761 23.2693C192.383 23.2693 192.885 23.0509 193.324 22.617C193.764 22.1831 193.991 21.6561 194.003 21.0417C194.012 20.436 193.796 19.9235 193.351 19.4983H193.345Z" fill="#653DF5"/>
</g>
<defs>
<clipPath id="clip0_2603_26">
<rect width="194" height="29" fill="white"/>
</clipPath>
</defs>
</svg>
